<mxfile host="Electron" modified="2024-01-06T09:18:03.464Z" agent="Mozilla/5.0 (Macintosh; Intel Mac OS X 10_15_7) AppleWebKit/537.36 (KHTML, like Gecko) draw.io/22.1.16 Chrome/120.0.6099.109 Electron/28.1.0 Safari/537.36" etag="0BY_IJK0OebnTwo2e6R_" version="22.1.16" type="device">
  <diagram name="Page-1" id="30h2nCImEFvP2ZuS26-c">
    <mxGraphModel dx="1434" dy="854" grid="1" gridSize="10" guides="1" tooltips="1" connect="1" arrows="1" fold="1" page="1" pageScale="1" pageWidth="827" pageHeight="1169" math="0" shadow="0">
      <root>
        <mxCell id="0" />
        <mxCell id="1" parent="0" />
        <mxCell id="DsPKytQ-7bHEUvlNzN28-51" value="" style="rounded=0;whiteSpace=wrap;html=1;strokeColor=#d79b00;align=center;verticalAlign=middle;fontFamily=Helvetica;fontSize=12;fillColor=#FF9999;gradientColor=#FF6666;" parent="1" vertex="1">
          <mxGeometry x="790" y="1000" width="1110" height="100" as="geometry" />
        </mxCell>
        <mxCell id="DsPKytQ-7bHEUvlNzN28-42" value="" style="rounded=0;whiteSpace=wrap;html=1;strokeColor=#d6b656;align=center;verticalAlign=middle;fontFamily=Helvetica;fontSize=12;fillColor=#fff2cc;gradientColor=#ffd966;" parent="1" vertex="1">
          <mxGeometry x="2460" y="160" width="330" height="530" as="geometry" />
        </mxCell>
        <mxCell id="DsPKytQ-7bHEUvlNzN28-27" value="" style="rounded=0;whiteSpace=wrap;html=1;strokeColor=#996185;align=center;verticalAlign=middle;fontFamily=Helvetica;fontSize=12;fillColor=#e6d0de;gradientColor=#d5739d;" parent="1" vertex="1">
          <mxGeometry x="1560" y="160" width="780" height="460" as="geometry" />
        </mxCell>
        <mxCell id="DsPKytQ-7bHEUvlNzN28-10" value="" style="rounded=0;whiteSpace=wrap;html=1;strokeColor=#82b366;align=center;verticalAlign=middle;fontFamily=Helvetica;fontSize=12;fillColor=#d5e8d4;gradientColor=#97d077;" parent="1" vertex="1">
          <mxGeometry x="354" y="220" width="386" height="460" as="geometry" />
        </mxCell>
        <mxCell id="2vgaF1LNhNX_624tT5Va-1" value="前端应用app" style="rounded=1;whiteSpace=wrap;html=1;" parent="1" vertex="1">
          <mxGeometry x="110" y="310" width="90" height="340" as="geometry" />
        </mxCell>
        <mxCell id="2" value="前端应用app" style="rounded=1;whiteSpace=wrap;html=1;fontSize=30;fillColor=#fad7ac;strokeColor=#b46504;" parent="1" vertex="1">
          <mxGeometry x="55" y="220" width="145" height="470" as="geometry" />
        </mxCell>
        <mxCell id="3" value="" style="shape=singleArrow;whiteSpace=wrap;html=1;fillColor=#f5f5f5;gradientColor=#b3b3b3;strokeColor=#666666;" parent="1" vertex="1">
          <mxGeometry x="230" y="450" width="100" height="60" as="geometry" />
        </mxCell>
        <mxCell id="4" value="&lt;font style=&quot;font-size: 30px;&quot;&gt;数据装配&lt;/font&gt;" style="rounded=0;whiteSpace=wrap;html=1;fillColor=#e6d0de;gradientColor=#d5739d;strokeColor=#996185;" parent="1" vertex="1">
          <mxGeometry x="370" y="310" width="90" height="340" as="geometry" />
        </mxCell>
        <mxCell id="DsPKytQ-7bHEUvlNzN28-6" value="&lt;span style=&quot;font-size: 30px;&quot;&gt;数据传输对象DTO&lt;/span&gt;" style="rounded=0;whiteSpace=wrap;html=1;fillColor=#e6d0de;gradientColor=#d5739d;strokeColor=#996185;" parent="1" vertex="1">
          <mxGeometry x="490" y="310" width="90" height="340" as="geometry" />
        </mxCell>
        <mxCell id="DsPKytQ-7bHEUvlNzN28-7" value="&lt;font style=&quot;font-size: 30px;&quot;&gt;门面接口&lt;br&gt;FACA&lt;br&gt;ED&lt;/font&gt;" style="rounded=0;whiteSpace=wrap;html=1;fillColor=#e6d0de;gradientColor=#d5739d;strokeColor=#996185;" parent="1" vertex="1">
          <mxGeometry x="610" y="310" width="90" height="340" as="geometry" />
        </mxCell>
        <mxCell id="DsPKytQ-7bHEUvlNzN28-11" value="&lt;font style=&quot;font-size: 30px;&quot;&gt;Interfaces&lt;/font&gt;" style="text;html=1;strokeColor=none;fillColor=none;align=center;verticalAlign=middle;whiteSpace=wrap;rounded=0;fontSize=12;fontFamily=Helvetica;fontColor=default;" parent="1" vertex="1">
          <mxGeometry x="440" y="240" width="190" height="30" as="geometry" />
        </mxCell>
        <mxCell id="DsPKytQ-7bHEUvlNzN28-12" value="" style="rounded=0;whiteSpace=wrap;html=1;strokeColor=#6c8ebf;align=center;verticalAlign=middle;fontFamily=Helvetica;fontSize=12;fillColor=#dae8fc;gradientColor=#7ea6e0;" parent="1" vertex="1">
          <mxGeometry x="880" y="220" width="530" height="460" as="geometry" />
        </mxCell>
        <mxCell id="DsPKytQ-7bHEUvlNzN28-13" value="&lt;font style=&quot;font-size: 30px;&quot;&gt;数据装配&lt;/font&gt;" style="rounded=0;whiteSpace=wrap;html=1;fillColor=#f8cecc;gradientColor=#ea6b66;strokeColor=#b85450;" parent="1" vertex="1">
          <mxGeometry x="896" y="310" width="90" height="340" as="geometry" />
        </mxCell>
        <mxCell id="DsPKytQ-7bHEUvlNzN28-14" value="&lt;span style=&quot;font-size: 30px;&quot;&gt;数据传输对象DTO&lt;/span&gt;" style="rounded=0;whiteSpace=wrap;html=1;fillColor=#f8cecc;gradientColor=#ea6b66;strokeColor=#b85450;" parent="1" vertex="1">
          <mxGeometry x="1016" y="310" width="90" height="340" as="geometry" />
        </mxCell>
        <mxCell id="DsPKytQ-7bHEUvlNzN28-30" style="edgeStyle=orthogonalEdgeStyle;rounded=0;orthogonalLoop=1;jettySize=auto;html=1;fontFamily=Helvetica;fontSize=12;fontColor=default;" parent="1" source="DsPKytQ-7bHEUvlNzN28-15" target="DsPKytQ-7bHEUvlNzN28-29" edge="1">
          <mxGeometry relative="1" as="geometry" />
        </mxCell>
        <mxCell id="DsPKytQ-7bHEUvlNzN28-15" value="&lt;font style=&quot;font-size: 30px;&quot;&gt;门面接口&lt;br&gt;FACA&lt;br&gt;ED&lt;/font&gt;" style="rounded=0;whiteSpace=wrap;html=1;fillColor=#f8cecc;gradientColor=#ea6b66;strokeColor=#b85450;" parent="1" vertex="1">
          <mxGeometry x="1136" y="310" width="90" height="340" as="geometry" />
        </mxCell>
        <mxCell id="DsPKytQ-7bHEUvlNzN28-16" value="&lt;font style=&quot;font-size: 30px;&quot;&gt;Application&lt;/font&gt;" style="text;html=1;strokeColor=none;fillColor=none;align=center;verticalAlign=middle;whiteSpace=wrap;rounded=0;fontSize=12;fontFamily=Helvetica;fontColor=default;" parent="1" vertex="1">
          <mxGeometry x="1050" y="240" width="190" height="30" as="geometry" />
        </mxCell>
        <mxCell id="DsPKytQ-7bHEUvlNzN28-17" value="" style="shape=singleArrow;whiteSpace=wrap;html=1;fillColor=#f5f5f5;gradientColor=#b3b3b3;strokeColor=#666666;" parent="1" vertex="1">
          <mxGeometry x="760" y="450" width="100" height="60" as="geometry" />
        </mxCell>
        <mxCell id="DsPKytQ-7bHEUvlNzN28-19" value="&lt;span style=&quot;font-size: 30px;&quot;&gt;仓储服务接口&lt;/span&gt;" style="rounded=0;whiteSpace=wrap;html=1;fillColor=#f8cecc;gradientColor=#ea6b66;strokeColor=#b85450;" parent="1" vertex="1">
          <mxGeometry x="1270" y="510" width="90" height="140" as="geometry" />
        </mxCell>
        <mxCell id="DsPKytQ-7bHEUvlNzN28-57" style="edgeStyle=orthogonalEdgeStyle;rounded=0;orthogonalLoop=1;jettySize=auto;html=1;entryX=0.5;entryY=0;entryDx=0;entryDy=0;fontFamily=Helvetica;fontSize=12;fontColor=default;exitX=0.5;exitY=0;exitDx=0;exitDy=0;exitPerimeter=0;" parent="1" source="DsPKytQ-7bHEUvlNzN28-20" target="DsPKytQ-7bHEUvlNzN28-54" edge="1">
          <mxGeometry relative="1" as="geometry">
            <Array as="points">
              <mxPoint x="1200" y="940" />
              <mxPoint x="1513" y="940" />
            </Array>
          </mxGeometry>
        </mxCell>
        <mxCell id="DsPKytQ-7bHEUvlNzN28-58" value="&lt;font style=&quot;font-size: 24px;&quot;&gt;应用层服务组合调用&lt;/font&gt;" style="edgeLabel;html=1;align=center;verticalAlign=middle;resizable=0;points=[];fontSize=12;fontFamily=Helvetica;fontColor=default;" parent="DsPKytQ-7bHEUvlNzN28-57" vertex="1" connectable="0">
          <mxGeometry x="-0.0476" y="-4" relative="1" as="geometry">
            <mxPoint as="offset" />
          </mxGeometry>
        </mxCell>
        <mxCell id="DsPKytQ-7bHEUvlNzN28-20" value="&lt;font style=&quot;font-size: 30px;&quot; color=&quot;#000000&quot;&gt;MQ/消息队列&lt;/font&gt;" style="shape=cylinder3;whiteSpace=wrap;html=1;boundedLbl=1;backgroundOutline=1;size=15;rounded=0;strokeColor=#36393d;align=center;verticalAlign=middle;fontFamily=Helvetica;fontSize=12;fillColor=#ffff88;direction=south;" parent="1" vertex="1">
          <mxGeometry x="921" y="800" width="280" height="100" as="geometry" />
        </mxCell>
        <mxCell id="DsPKytQ-7bHEUvlNzN28-21" value="" style="endArrow=classic;html=1;rounded=0;fontFamily=Helvetica;fontSize=12;fontColor=default;exitX=0.01;exitY=0.839;exitDx=0;exitDy=0;exitPerimeter=0;edgeStyle=orthogonalEdgeStyle;strokeColor=#000000;" parent="1" source="DsPKytQ-7bHEUvlNzN28-20" target="DsPKytQ-7bHEUvlNzN28-13" edge="1">
          <mxGeometry width="50" height="50" relative="1" as="geometry">
            <mxPoint x="870" y="770" as="sourcePoint" />
            <mxPoint x="920" y="720" as="targetPoint" />
          </mxGeometry>
        </mxCell>
        <mxCell id="DsPKytQ-7bHEUvlNzN28-23" value="&lt;font style=&quot;font-size: 30px;&quot;&gt;发布&lt;/font&gt;" style="edgeLabel;html=1;align=center;verticalAlign=middle;resizable=0;points=[];fontSize=12;fontFamily=Helvetica;fontColor=default;" parent="DsPKytQ-7bHEUvlNzN28-21" vertex="1" connectable="0">
          <mxGeometry x="0.3041" y="-4" relative="1" as="geometry">
            <mxPoint x="5" y="9" as="offset" />
          </mxGeometry>
        </mxCell>
        <mxCell id="DsPKytQ-7bHEUvlNzN28-25" style="edgeStyle=orthogonalEdgeStyle;rounded=0;orthogonalLoop=1;jettySize=auto;html=1;entryX=0;entryY=0.5;entryDx=0;entryDy=0;entryPerimeter=0;fontFamily=Helvetica;fontSize=12;fontColor=default;" parent="1" source="DsPKytQ-7bHEUvlNzN28-14" target="DsPKytQ-7bHEUvlNzN28-20" edge="1">
          <mxGeometry relative="1" as="geometry" />
        </mxCell>
        <mxCell id="DsPKytQ-7bHEUvlNzN28-26" value="&lt;font style=&quot;font-size: 30px;&quot;&gt;订阅&lt;/font&gt;" style="edgeLabel;html=1;align=center;verticalAlign=middle;resizable=0;points=[];fontSize=12;fontFamily=Helvetica;fontColor=default;" parent="DsPKytQ-7bHEUvlNzN28-25" vertex="1" connectable="0">
          <mxGeometry x="-0.0982" y="4" relative="1" as="geometry">
            <mxPoint as="offset" />
          </mxGeometry>
        </mxCell>
        <mxCell id="DsPKytQ-7bHEUvlNzN28-37" style="edgeStyle=orthogonalEdgeStyle;rounded=0;orthogonalLoop=1;jettySize=auto;html=1;entryX=0;entryY=0.5;entryDx=0;entryDy=0;fontFamily=Helvetica;fontSize=12;fontColor=default;" parent="1" source="DsPKytQ-7bHEUvlNzN28-29" target="DsPKytQ-7bHEUvlNzN28-32" edge="1">
          <mxGeometry relative="1" as="geometry" />
        </mxCell>
        <mxCell id="DsPKytQ-7bHEUvlNzN28-29" value="&lt;font style=&quot;font-size: 30px;&quot;&gt;领域服务&lt;/font&gt;" style="rounded=0;whiteSpace=wrap;html=1;strokeColor=#23445d;align=center;verticalAlign=middle;fontFamily=Helvetica;fontSize=12;fillColor=#bac8d3;" parent="1" vertex="1">
          <mxGeometry x="1620" y="390" width="150" height="180" as="geometry" />
        </mxCell>
        <mxCell id="DsPKytQ-7bHEUvlNzN28-31" value="&lt;font style=&quot;font-size: 30px;&quot;&gt;Domain&lt;/font&gt;" style="text;html=1;strokeColor=none;fillColor=none;align=center;verticalAlign=middle;whiteSpace=wrap;rounded=0;fontSize=12;fontFamily=Helvetica;fontColor=default;" parent="1" vertex="1">
          <mxGeometry x="1665" y="220" width="60" height="30" as="geometry" />
        </mxCell>
        <mxCell id="DsPKytQ-7bHEUvlNzN28-41" style="edgeStyle=orthogonalEdgeStyle;rounded=0;orthogonalLoop=1;jettySize=auto;html=1;fontFamily=Helvetica;fontSize=12;fontColor=default;" parent="1" source="DsPKytQ-7bHEUvlNzN28-32" target="DsPKytQ-7bHEUvlNzN28-38" edge="1">
          <mxGeometry relative="1" as="geometry" />
        </mxCell>
        <mxCell id="DsPKytQ-7bHEUvlNzN28-32" value="&lt;font style=&quot;font-size: 30px;&quot;&gt;实体/值对象&lt;/font&gt;" style="rounded=0;whiteSpace=wrap;html=1;strokeColor=#36393d;align=center;verticalAlign=middle;fontFamily=Helvetica;fontSize=12;fillColor=#cdeb8b;" parent="1" vertex="1">
          <mxGeometry x="1940" y="310" width="200" height="60" as="geometry" />
        </mxCell>
        <mxCell id="DsPKytQ-7bHEUvlNzN28-40" style="edgeStyle=orthogonalEdgeStyle;rounded=0;orthogonalLoop=1;jettySize=auto;html=1;entryX=0;entryY=0.5;entryDx=0;entryDy=0;fontFamily=Helvetica;fontSize=12;fontColor=default;" parent="1" source="DsPKytQ-7bHEUvlNzN28-33" target="DsPKytQ-7bHEUvlNzN28-38" edge="1">
          <mxGeometry relative="1" as="geometry">
            <Array as="points">
              <mxPoint x="2160" y="450" />
              <mxPoint x="2160" y="450" />
            </Array>
          </mxGeometry>
        </mxCell>
        <mxCell id="DsPKytQ-7bHEUvlNzN28-33" value="" style="rounded=0;whiteSpace=wrap;html=1;strokeColor=#36393d;align=center;verticalAlign=middle;fontFamily=Helvetica;fontSize=12;fillColor=#ffff88;" parent="1" vertex="1">
          <mxGeometry x="1940" y="390" width="200" height="200" as="geometry" />
        </mxCell>
        <mxCell id="DsPKytQ-7bHEUvlNzN28-34" value="&lt;font style=&quot;font-size: 30px;&quot;&gt;实体/值对象方法&lt;/font&gt;" style="rounded=0;whiteSpace=wrap;html=1;strokeColor=#36393d;align=center;verticalAlign=middle;fontFamily=Helvetica;fontSize=12;fillColor=#cce5ff;" parent="1" vertex="1">
          <mxGeometry x="1960" y="410" width="160" height="70" as="geometry" />
        </mxCell>
        <mxCell id="DsPKytQ-7bHEUvlNzN28-35" value="&lt;font style=&quot;font-size: 30px;&quot;&gt;实体/值对象方法&lt;/font&gt;" style="rounded=0;whiteSpace=wrap;html=1;strokeColor=#36393d;align=center;verticalAlign=middle;fontFamily=Helvetica;fontSize=12;fillColor=#cce5ff;" parent="1" vertex="1">
          <mxGeometry x="1960" y="500" width="160" height="70" as="geometry" />
        </mxCell>
        <mxCell id="DsPKytQ-7bHEUvlNzN28-36" style="edgeStyle=orthogonalEdgeStyle;rounded=0;orthogonalLoop=1;jettySize=auto;html=1;entryX=0.008;entryY=0.443;entryDx=0;entryDy=0;entryPerimeter=0;fontFamily=Helvetica;fontSize=12;fontColor=default;" parent="1" source="DsPKytQ-7bHEUvlNzN28-29" target="DsPKytQ-7bHEUvlNzN28-33" edge="1">
          <mxGeometry relative="1" as="geometry" />
        </mxCell>
        <mxCell id="DsPKytQ-7bHEUvlNzN28-45" style="edgeStyle=orthogonalEdgeStyle;rounded=0;orthogonalLoop=1;jettySize=auto;html=1;fontFamily=Helvetica;fontSize=12;fontColor=default;" parent="1" source="DsPKytQ-7bHEUvlNzN28-38" target="DsPKytQ-7bHEUvlNzN28-43" edge="1">
          <mxGeometry relative="1" as="geometry" />
        </mxCell>
        <mxCell id="DsPKytQ-7bHEUvlNzN28-38" value="&lt;font style=&quot;font-size: 30px;&quot;&gt;应用服务&lt;/font&gt;" style="rounded=0;whiteSpace=wrap;html=1;strokeColor=#36393d;align=center;verticalAlign=middle;fontFamily=Helvetica;fontSize=12;fillColor=#cce5ff;" parent="1" vertex="1">
          <mxGeometry x="2220" y="310" width="60" height="280" as="geometry" />
        </mxCell>
        <mxCell id="DsPKytQ-7bHEUvlNzN28-50" style="edgeStyle=orthogonalEdgeStyle;rounded=0;orthogonalLoop=1;jettySize=auto;html=1;entryX=0;entryY=0.5;entryDx=0;entryDy=0;fontFamily=Helvetica;fontSize=12;fontColor=default;" parent="1" source="DsPKytQ-7bHEUvlNzN28-43" target="DsPKytQ-7bHEUvlNzN28-47" edge="1">
          <mxGeometry relative="1" as="geometry" />
        </mxCell>
        <mxCell id="DsPKytQ-7bHEUvlNzN28-43" value="&lt;font style=&quot;font-size: 30px;&quot;&gt;仓储服务实现&lt;/font&gt;" style="rounded=0;whiteSpace=wrap;html=1;strokeColor=#36393d;align=center;verticalAlign=middle;fontFamily=Helvetica;fontSize=12;fillColor=#cce5ff;" parent="1" vertex="1">
          <mxGeometry x="2500" y="360" width="60" height="280" as="geometry" />
        </mxCell>
        <mxCell id="DsPKytQ-7bHEUvlNzN28-44" value="&lt;font style=&quot;font-size: 30px;&quot;&gt;infrastructure&lt;/font&gt;" style="text;html=1;strokeColor=none;fillColor=none;align=center;verticalAlign=middle;whiteSpace=wrap;rounded=0;fontSize=12;fontFamily=Helvetica;fontColor=default;" parent="1" vertex="1">
          <mxGeometry x="2600" y="220" width="60" height="30" as="geometry" />
        </mxCell>
        <mxCell id="DsPKytQ-7bHEUvlNzN28-46" value="&lt;font style=&quot;font-size: 30px;&quot;&gt;DB&lt;/font&gt;" style="shape=cylinder3;whiteSpace=wrap;html=1;boundedLbl=1;backgroundOutline=1;size=15;rounded=0;strokeColor=#3A5431;align=center;verticalAlign=middle;fontFamily=Helvetica;fontSize=12;fontColor=#ffffff;fillColor=#6d8764;" parent="1" vertex="1">
          <mxGeometry x="2640" y="360" width="80" height="100" as="geometry" />
        </mxCell>
        <mxCell id="DsPKytQ-7bHEUvlNzN28-47" value="&lt;font style=&quot;font-size: 30px;&quot;&gt;ES/文件&lt;/font&gt;" style="shape=dataStorage;whiteSpace=wrap;html=1;fixedSize=1;rounded=0;strokeColor=#432D57;align=center;verticalAlign=middle;fontFamily=Helvetica;fontSize=12;fontColor=#ffffff;fillColor=#76608a;" parent="1" vertex="1">
          <mxGeometry x="2640" y="510" width="140" height="80" as="geometry" />
        </mxCell>
        <mxCell id="DsPKytQ-7bHEUvlNzN28-49" style="edgeStyle=orthogonalEdgeStyle;rounded=0;orthogonalLoop=1;jettySize=auto;html=1;entryX=0;entryY=0;entryDx=0;entryDy=67.5;entryPerimeter=0;fontFamily=Helvetica;fontSize=12;fontColor=default;" parent="1" source="DsPKytQ-7bHEUvlNzN28-43" target="DsPKytQ-7bHEUvlNzN28-46" edge="1">
          <mxGeometry relative="1" as="geometry" />
        </mxCell>
        <mxCell id="DsPKytQ-7bHEUvlNzN28-52" value="&lt;font style=&quot;font-size: 30px;&quot;&gt;应用事件发布&lt;/font&gt;" style="rounded=0;whiteSpace=wrap;html=1;strokeColor=#36393d;align=center;verticalAlign=middle;fontFamily=Helvetica;fontSize=12;fillColor=#cdeb8b;" parent="1" vertex="1">
          <mxGeometry x="820" y="1020" width="210" height="60" as="geometry" />
        </mxCell>
        <mxCell id="DsPKytQ-7bHEUvlNzN28-53" value="&lt;font style=&quot;font-size: 30px;&quot;&gt;应用事件处理&lt;/font&gt;" style="rounded=0;whiteSpace=wrap;html=1;strokeColor=#36393d;align=center;verticalAlign=middle;fontFamily=Helvetica;fontSize=12;fillColor=#cdeb8b;" parent="1" vertex="1">
          <mxGeometry x="1120" y="1020" width="210" height="60" as="geometry" />
        </mxCell>
        <mxCell id="DsPKytQ-7bHEUvlNzN28-54" value="&lt;font style=&quot;font-size: 30px;&quot;&gt;应用服务&lt;/font&gt;" style="rounded=0;whiteSpace=wrap;html=1;strokeColor=#36393d;align=center;verticalAlign=middle;fontFamily=Helvetica;fontSize=12;fillColor=#cdeb8b;" parent="1" vertex="1">
          <mxGeometry x="1430" y="1020" width="166" height="60" as="geometry" />
        </mxCell>
        <mxCell id="DsPKytQ-7bHEUvlNzN28-55" value="" style="shape=flexArrow;endArrow=classic;html=1;rounded=0;fontFamily=Helvetica;fontSize=12;fontColor=default;exitX=0.5;exitY=0;exitDx=0;exitDy=0;fillColor=#647687;strokeColor=#314354;" parent="1" source="DsPKytQ-7bHEUvlNzN28-52" target="DsPKytQ-7bHEUvlNzN28-20" edge="1">
          <mxGeometry width="50" height="50" relative="1" as="geometry">
            <mxPoint x="710" y="910" as="sourcePoint" />
            <mxPoint x="760" y="860" as="targetPoint" />
          </mxGeometry>
        </mxCell>
        <mxCell id="DsPKytQ-7bHEUvlNzN28-56" value="" style="shape=flexArrow;endArrow=classic;html=1;rounded=0;fontFamily=Helvetica;fontSize=12;fontColor=default;exitX=1.037;exitY=0.343;exitDx=0;exitDy=0;fillColor=#647687;strokeColor=#314354;entryX=0.5;entryY=0;entryDx=0;entryDy=0;exitPerimeter=0;" parent="1" source="DsPKytQ-7bHEUvlNzN28-20" target="DsPKytQ-7bHEUvlNzN28-53" edge="1">
          <mxGeometry width="50" height="50" relative="1" as="geometry">
            <mxPoint x="935" y="1030" as="sourcePoint" />
            <mxPoint x="1031" y="910" as="targetPoint" />
          </mxGeometry>
        </mxCell>
        <mxCell id="DsPKytQ-7bHEUvlNzN28-59" value="&lt;font style=&quot;font-size: 48px;&quot;&gt;外部服务&lt;/font&gt;" style="text;html=1;strokeColor=none;fillColor=none;align=center;verticalAlign=middle;whiteSpace=wrap;rounded=0;fontSize=12;fontFamily=Helvetica;fontColor=default;" parent="1" vertex="1">
          <mxGeometry x="1660" y="1035" width="220" height="30" as="geometry" />
        </mxCell>
        <mxCell id="cnl3PccxArWICDiJoTIY-4" value="&lt;font style=&quot;font-size: 24px;&quot;&gt;DDD 分层&lt;/font&gt;" style="text;html=1;strokeColor=none;fillColor=none;align=center;verticalAlign=middle;whiteSpace=wrap;rounded=0;" vertex="1" parent="1">
          <mxGeometry x="350" y="1475" width="150" height="30" as="geometry" />
        </mxCell>
        <mxCell id="cnl3PccxArWICDiJoTIY-5" value="" style="shape=curlyBracket;whiteSpace=wrap;html=1;rounded=1;labelPosition=left;verticalLabelPosition=middle;align=right;verticalAlign=middle;strokeWidth=2;" vertex="1" parent="1">
          <mxGeometry x="490" y="1250" width="20" height="480" as="geometry" />
        </mxCell>
        <mxCell id="cnl3PccxArWICDiJoTIY-9" value="&lt;font style=&quot;font-size: 24px;&quot;&gt;应用层&lt;/font&gt;" style="rounded=1;whiteSpace=wrap;html=1;strokeWidth=2;" vertex="1" parent="1">
          <mxGeometry x="520" y="1250" width="140" height="60" as="geometry" />
        </mxCell>
        <mxCell id="cnl3PccxArWICDiJoTIY-10" value="&lt;font style=&quot;font-size: 24px;&quot;&gt;通用包&lt;/font&gt;" style="rounded=1;whiteSpace=wrap;html=1;strokeWidth=2;" vertex="1" parent="1">
          <mxGeometry x="520" y="1350" width="140" height="60" as="geometry" />
        </mxCell>
        <mxCell id="cnl3PccxArWICDiJoTIY-11" value="&lt;font style=&quot;font-size: 24px;&quot;&gt;领域层&lt;/font&gt;" style="rounded=1;whiteSpace=wrap;html=1;strokeWidth=2;" vertex="1" parent="1">
          <mxGeometry x="520" y="1450" width="140" height="60" as="geometry" />
        </mxCell>
        <mxCell id="cnl3PccxArWICDiJoTIY-12" value="&lt;font style=&quot;font-size: 24px;&quot;&gt;接口层&lt;/font&gt;" style="rounded=1;whiteSpace=wrap;html=1;strokeWidth=2;" vertex="1" parent="1">
          <mxGeometry x="520" y="1670" width="140" height="60" as="geometry" />
        </mxCell>
        <mxCell id="cnl3PccxArWICDiJoTIY-13" value="&lt;font style=&quot;font-size: 24px;&quot;&gt;基础层&lt;/font&gt;" style="rounded=1;whiteSpace=wrap;html=1;strokeWidth=2;" vertex="1" parent="1">
          <mxGeometry x="520" y="1560" width="140" height="60" as="geometry" />
        </mxCell>
        <mxCell id="cnl3PccxArWICDiJoTIY-14" value="&lt;font style=&quot;font-size: 20px;&quot;&gt;&lt;b style=&quot;&quot;&gt;lottery-application&lt;/b&gt;&lt;/font&gt;" style="rounded=1;whiteSpace=wrap;html=1;strokeWidth=2;fillWeight=4;hachureGap=8;hachureAngle=45;fillColor=#fff2cc;sketch=1;strokeColor=#d6b656;" vertex="1" parent="1">
          <mxGeometry x="730" y="1250" width="310" height="60" as="geometry" />
        </mxCell>
        <mxCell id="cnl3PccxArWICDiJoTIY-20" value="&lt;font style=&quot;font-size: 20px;&quot;&gt;&lt;b style=&quot;&quot;&gt;lottery-common&lt;/b&gt;&lt;/font&gt;" style="rounded=1;whiteSpace=wrap;html=1;strokeWidth=2;fillWeight=4;hachureGap=8;hachureAngle=45;fillColor=#d5e8d4;sketch=1;strokeColor=#82b366;" vertex="1" parent="1">
          <mxGeometry x="730" y="1350" width="190" height="60" as="geometry" />
        </mxCell>
        <mxCell id="cnl3PccxArWICDiJoTIY-27" style="edgeStyle=orthogonalEdgeStyle;rounded=0;orthogonalLoop=1;jettySize=auto;html=1;entryX=0.5;entryY=0;entryDx=0;entryDy=0;dashed=1;strokeWidth=2;" edge="1" parent="1" source="cnl3PccxArWICDiJoTIY-21" target="cnl3PccxArWICDiJoTIY-22">
          <mxGeometry relative="1" as="geometry" />
        </mxCell>
        <mxCell id="cnl3PccxArWICDiJoTIY-21" value="&lt;font style=&quot;font-size: 20px;&quot;&gt;&lt;b style=&quot;&quot;&gt;lottery-application&lt;/b&gt;&lt;/font&gt;" style="rounded=1;whiteSpace=wrap;html=1;strokeWidth=2;fillWeight=4;hachureGap=8;hachureAngle=45;fillColor=#66B2FF;sketch=1;strokeColor=#6c8ebf;" vertex="1" parent="1">
          <mxGeometry x="730" y="1445" width="250" height="60" as="geometry" />
        </mxCell>
        <mxCell id="cnl3PccxArWICDiJoTIY-22" value="&lt;font style=&quot;font-size: 20px;&quot;&gt;&lt;b style=&quot;&quot;&gt;lottery-infrastructure&lt;/b&gt;&lt;/font&gt;" style="rounded=1;whiteSpace=wrap;html=1;strokeWidth=2;fillWeight=4;hachureGap=8;hachureAngle=45;fillColor=#FFCCFF;sketch=1;strokeColor=#FF99FF;" vertex="1" parent="1">
          <mxGeometry x="730" y="1560" width="250" height="60" as="geometry" />
        </mxCell>
        <mxCell id="cnl3PccxArWICDiJoTIY-32" style="edgeStyle=orthogonalEdgeStyle;rounded=0;orthogonalLoop=1;jettySize=auto;html=1;strokeWidth=2;" edge="1" parent="1" source="cnl3PccxArWICDiJoTIY-23" target="cnl3PccxArWICDiJoTIY-31">
          <mxGeometry relative="1" as="geometry">
            <Array as="points">
              <mxPoint x="795" y="1750" />
              <mxPoint x="795" y="1750" />
            </Array>
          </mxGeometry>
        </mxCell>
        <mxCell id="cnl3PccxArWICDiJoTIY-23" value="&lt;font style=&quot;font-size: 20px;&quot;&gt;&lt;b style=&quot;&quot;&gt;lottery-interfaces&lt;/b&gt;&lt;/font&gt;" style="rounded=1;whiteSpace=wrap;html=1;strokeWidth=2;fillWeight=4;hachureGap=8;hachureAngle=45;fillColor=#ffe6cc;sketch=1;strokeColor=#d79b00;" vertex="1" parent="1">
          <mxGeometry x="730" y="1670" width="310" height="60" as="geometry" />
        </mxCell>
        <mxCell id="cnl3PccxArWICDiJoTIY-25" style="edgeStyle=orthogonalEdgeStyle;rounded=0;orthogonalLoop=1;jettySize=auto;html=1;entryX=0.912;entryY=-0.033;entryDx=0;entryDy=0;entryPerimeter=0;strokeWidth=2;" edge="1" parent="1" source="cnl3PccxArWICDiJoTIY-14" target="cnl3PccxArWICDiJoTIY-21">
          <mxGeometry relative="1" as="geometry">
            <Array as="points">
              <mxPoint x="958" y="1350" />
              <mxPoint x="958" y="1350" />
            </Array>
          </mxGeometry>
        </mxCell>
        <mxCell id="cnl3PccxArWICDiJoTIY-26" style="edgeStyle=orthogonalEdgeStyle;rounded=0;orthogonalLoop=1;jettySize=auto;html=1;entryX=0.939;entryY=0.983;entryDx=0;entryDy=0;entryPerimeter=0;strokeWidth=2;" edge="1" parent="1" source="cnl3PccxArWICDiJoTIY-23" target="cnl3PccxArWICDiJoTIY-14">
          <mxGeometry relative="1" as="geometry">
            <Array as="points">
              <mxPoint x="1021" y="1580" />
              <mxPoint x="1021" y="1580" />
            </Array>
          </mxGeometry>
        </mxCell>
        <mxCell id="cnl3PccxArWICDiJoTIY-28" value="&lt;font style=&quot;font-size: 24px;&quot;&gt;RPC 接口&lt;/font&gt;" style="text;html=1;strokeColor=none;fillColor=none;align=center;verticalAlign=middle;whiteSpace=wrap;rounded=0;" vertex="1" parent="1">
          <mxGeometry x="350" y="1806" width="150" height="30" as="geometry" />
        </mxCell>
        <mxCell id="cnl3PccxArWICDiJoTIY-29" value="" style="shape=curlyBracket;whiteSpace=wrap;html=1;rounded=1;labelPosition=left;verticalLabelPosition=middle;align=right;verticalAlign=middle;strokeWidth=2;" vertex="1" parent="1">
          <mxGeometry x="490" y="1790" width="20" height="60" as="geometry" />
        </mxCell>
        <mxCell id="cnl3PccxArWICDiJoTIY-30" value="&lt;font style=&quot;font-size: 24px;&quot;&gt;接口定义&lt;/font&gt;" style="rounded=1;whiteSpace=wrap;html=1;strokeWidth=2;" vertex="1" parent="1">
          <mxGeometry x="520" y="1790" width="140" height="60" as="geometry" />
        </mxCell>
        <mxCell id="cnl3PccxArWICDiJoTIY-31" value="&lt;font style=&quot;font-size: 20px;&quot;&gt;&lt;b style=&quot;&quot;&gt;lottery-rpc&lt;/b&gt;&lt;/font&gt;" style="rounded=1;whiteSpace=wrap;html=1;strokeWidth=2;fillWeight=4;hachureGap=8;hachureAngle=45;fillColor=#99FFFF;sketch=1;strokeColor=#66FFFF;" vertex="1" parent="1">
          <mxGeometry x="730" y="1791" width="130" height="60" as="geometry" />
        </mxCell>
        <mxCell id="cnl3PccxArWICDiJoTIY-33" value="&lt;font style=&quot;font-size: 18px;&quot;&gt;逻辑包装、编排、renew、领域事件的发布和订阅&lt;/font&gt;" style="text;html=1;strokeColor=none;fillColor=none;align=center;verticalAlign=middle;whiteSpace=wrap;rounded=0;" vertex="1" parent="1">
          <mxGeometry x="1090" y="1265" width="230" height="30" as="geometry" />
        </mxCell>
        <mxCell id="cnl3PccxArWICDiJoTIY-34" value="&lt;font style=&quot;font-size: 18px;&quot;&gt;定义通用返回对象、常量、枚举、异常&lt;/font&gt;" style="text;html=1;strokeColor=none;fillColor=none;align=center;verticalAlign=middle;whiteSpace=wrap;rounded=0;" vertex="1" parent="1">
          <mxGeometry x="1090" y="1365" width="230" height="30" as="geometry" />
        </mxCell>
        <mxCell id="cnl3PccxArWICDiJoTIY-35" value="&lt;font style=&quot;font-size: 18px;&quot;&gt;封装具体的业务领域功能实现，它们是聚合、充血的&lt;/font&gt;" style="text;html=1;strokeColor=none;fillColor=none;align=center;verticalAlign=middle;whiteSpace=wrap;rounded=0;" vertex="1" parent="1">
          <mxGeometry x="1090" y="1460" width="230" height="30" as="geometry" />
        </mxCell>
        <mxCell id="cnl3PccxArWICDiJoTIY-36" value="&lt;font style=&quot;font-size: 18px;&quot;&gt;提供基础的功能服务，包括：数据库、Redis、ES等&lt;/font&gt;" style="text;html=1;strokeColor=none;fillColor=none;align=center;verticalAlign=middle;whiteSpace=wrap;rounded=0;" vertex="1" parent="1">
          <mxGeometry x="1080" y="1575" width="230" height="30" as="geometry" />
        </mxCell>
        <mxCell id="cnl3PccxArWICDiJoTIY-37" value="&lt;font style=&quot;font-size: 18px;&quot;&gt;实现PRC接口定义，引入应用层服务，封装具体的接口&lt;/font&gt;" style="text;html=1;strokeColor=none;fillColor=none;align=center;verticalAlign=middle;whiteSpace=wrap;rounded=0;" vertex="1" parent="1">
          <mxGeometry x="1080" y="1685" width="230" height="30" as="geometry" />
        </mxCell>
        <mxCell id="cnl3PccxArWICDiJoTIY-38" value="&lt;font style=&quot;font-size: 18px;&quot;&gt;描述PRC接口文件，用于打包后外部引入POM配置&lt;/font&gt;" style="text;html=1;strokeColor=none;fillColor=none;align=center;verticalAlign=middle;whiteSpace=wrap;rounded=0;" vertex="1" parent="1">
          <mxGeometry x="1080" y="1805" width="230" height="30" as="geometry" />
        </mxCell>
      </root>
    </mxGraphModel>
  </diagram>
</mxfile>
